<?xml version="1.0" encoding="UTF-8"?>
<svg id="Layer_1" xmlns="http://www.w3.org/2000/svg" version="1.1" viewBox="0 0 280 40">
  <!-- Generator: Adobe Illustrator 30.3.0, SVG Export Plug-In . SVG Version: 2.1.3 Build 182)  -->
  <defs>
    <style>
      .st0 {
        fill: #83be45;
      }

      .st1 {
        fill: #e92629;
      }

      .st2 {
        fill: #fff;
      }
    </style>
  </defs>
  <g>
    <path class="st2" d="M13,29.1c-.7.3-2.5,1.1-4.9,1.1-4.8-.1-8.1-3.6-8.1-8.6s3.6-8.9,8.6-8.9,3.8.6,4.4,1l-.6,1.4c-.8-.5-2.1-1-3.9-1-4.5,0-6.8,3.5-6.8,7.4s2.8,7.3,6.6,7.3,3.3-.6,4.2-1c0,0,.5,1.3.5,1.3ZM7,10.6l-3.3-4.8h1.7l2.2,3.5h0l2.2-3.5h1.6l-3.2,4.8h-1.3,0Z"/>
    <path class="st2" d="M19.2,8.2c0,.8-.5,1.4-1.4,1.4s-1.3-.7-1.3-1.4.6-1.5,1.4-1.5,1.3.7,1.3,1.5ZM17,29.8V13h1.7v16.8h-1.7Z"/>
    <path class="st2" d="M23.6,27.6c.9.6,2.3,1.2,3.8,1.2,2.7,0,3.9-1.4,3.9-3.2s-1.1-2.8-3.5-3.8c-2.8-1-4.3-2.6-4.3-4.6s1.9-4.5,5.2-4.5,2.9.5,3.7,1l-.6,1.4c-.6-.4-1.7-1-3.4-1s-3.3,1.4-3.3,2.9,1.2,2.5,3.5,3.5c2.7,1,4.3,2.4,4.3,5s-2.2,4.8-5.7,4.8-3.1-.5-4.3-1.2l.6-1.4h0ZM27.6,10.6l-3.3-4.8h1.7l2.2,3.5h0l2.2-3.5h1.6l-3.2,4.8h-1.3,0Z"/>
    <path class="st2" d="M39.7,9.3v3.7h4.8v1.4h-4.8v10.9c0,2.1.7,3.5,2.4,3.5s1.5-.1,1.9-.2l.2,1.3c-.6.2-1.3.4-2.3.4s-2.2-.4-2.9-1.2c-.8-.9-1-2.3-1-4v-10.6h-2.8v-1.4h2.8v-3.1l1.7-.6h0Z"/>
    <path class="st2" d="M48.2,21.2c0,5.3,2.9,7.5,6.4,7.5s3.7-.5,4.6-.9l.4,1.3c-.6.3-2.3,1.1-5.3,1.1-4.8,0-7.8-3.5-7.8-8.4s3.2-9.1,7.5-9.1,6.5,5.2,6.5,7.6,0,.7,0,1h-12.4,0ZM58.9,19.9c0-2.3-.9-5.9-5-5.9s-5.3,3.3-5.6,5.9h10.6ZM53,10.6l-3.3-4.8h1.7l2.2,3.5h0l2.2-3.5h1.6l-3.1,4.8h-1.4,0Z"/>
    <path class="st2" d="M64.9,17c0-1.5,0-2.7,0-4h1.6v3h.2c.9-1.9,3-3.4,5.8-3.4s5.9.8,5.9,7.1v10.1h-1.7v-9.9c0-3-1.2-5.8-4.6-5.8s-4.4,1.7-5,3.8c0,.4-.2,1-.2,1.5v10.4h-1.7v-12.8h-.2Z"/>
    <path class="st2" d="M88.6,5.8l-4.3,4.8h-1.3l3.1-4.8h2.5ZM83.6,29.8V13h1.7v16.8h-1.7Z"/>
    <path class="st0" d="M96.4,19.6h0c.4-.8.7-1.5,1.1-2.1l2.8-4.9h7.5l-5.9,6.9,6.8,10.3h-7.8l-3.4-6.6-1.3,1.7v4.9h-6.3V5h6.3v14.6h.2Z"/>
    <path class="st0" d="M127,21c0,6.3-4.5,9.2-9.3,9.2s-9.1-3.3-9.1-8.8,3.6-9.1,9.5-9.1,8.9,3.6,8.9,8.8h0ZM115.1,21.2c0,2.6.8,4.5,2.8,4.5s2.6-1.8,2.6-4.5-.8-4.5-2.6-4.5-2.8,2.3-2.8,4.5Z"/>
    <path class="st0" d="M130,5h6.3v9.4h0c1-1.3,2.7-2.1,4.9-2.1,4.1,0,7.1,3.4,7,8.6,0,6.2-3.9,9.3-7.9,9.3s-3.7-.7-4.9-2.6h0l-.2,2.2h-5.3c0-1.1.1-3.3.1-5.5V5h0ZM136.3,22.3v.9c.2,1.1,1.2,2.1,2.5,2.1,1.9,0,3-1.4,3-4.1s-.9-4.1-3-4.1-2.3.9-2.5,2.1v3.1Z"/>
    <path class="st0" d="M156.6,23.4c.2,1.4,2.2,2.1,4.4,2.1s3.1-.2,4.7-.7l.8,4.2c-2.1.8-4.3,1.1-6.4,1.1-6,0-9.5-3.4-9.5-8.8s2.6-9.2,8.9-9.2,7.9,4.1,7.9,8.8-.1,2-.2,2.4h-10.6,0ZM161.7,19.1c0-1-.5-2.8-2.4-2.8s-2.6,1.7-2.7,2.8h5.1,0Z"/>
    <path class="st0" d="M170.3,18.4c0-2.7,0-4.4-.1-5.8h5.4l.2,3.1h.1c.9-2.6,3.1-3.5,4.6-3.5s.8,0,1.3.1v5.9c-.5-.1-.9-.2-1.6-.2-1.9,0-3.1.8-3.5,2.2v9.6h-6.3v-11.4h0Z"/>
    <path class="st0" d="M197.3,29.4c-1,.5-2.8.7-4.7.7-5.7,0-9.3-3.4-9.3-8.8s3.4-9.1,10.1-9.1,2.7.2,3.9.6l-.9,4.6c-.6-.2-1.4-.4-2.7-.4-2.3,0-4,1.6-4,4.1s1.9,4.2,4.2,4.2,2-.1,2.8-.5l.7,4.6h-.1Z"/>
    <path class="st0" d="M217,23.9c0,2.4,0,4.4.1,5.9h-5.5l-.3-2.3h-.1c-.6.9-2.1,2.7-5.2,2.7s-6.1-2.5-6.1-7.4v-10.1h6.3v9.1c0,2.2.7,3.4,2.2,3.4s1.8-.8,2-1.5c.1-.2.1-.6.1-.9v-10.1h6.3v11.3h.2ZM204.3,7.5c0-2,1.5-3.6,4.3-3.6s4.2,1.5,4.2,3.5-1.6,3.5-4.2,3.5-4.2-1.5-4.2-3.5h-.1ZM210,7.4c0-.8-.5-1.6-1.5-1.6s-1.5.8-1.5,1.6.5,1.5,1.5,1.5,1.5-.7,1.5-1.6h0Z"/>
  </g>
  <rect class="st1" x="220.1" y="12.6" width="59.8" height="17.2"/>
  <g>
    <path class="st2" d="M223.5,25.1v-8.2h1.7l4.5,5.3v-5.3h1.9v8.2h-1.7l-4.5-5.3v5.3s-1.9,0-1.9,0Z"/>
    <path class="st2" d="M240,17.9c.8.8,1.3,1.8,1.3,3.1s-.4,2.2-1.3,3.1c-.8.7-1.8,1.2-3.2,1.2s-2.6-.6-3.2-1.2c-.8-.7-1.3-1.8-1.3-3.1s.5-2.4,1.3-3.1,1.6-1.2,3.2-1.2,2.4.4,3.2,1.2ZM235,19.2c-.4.3-.7.9-.7,1.9s.2,1.4.8,1.8c.5.5,1.1.7,1.8.7s1.4-.3,1.8-.7c.3-.3.7-.9.7-1.8s-.3-1.5-.7-1.8c-.4-.4-1.1-.7-1.8-.7s-1.4.3-1.8.7h-.1Z"/>
    <path class="st2" d="M242,25.1v-8.2h1.7l4.5,5.3v-5.3h1.9v8.2h-1.7l-4.5-5.3v5.3s-1.9,0-1.9,0Z"/>
    <path class="st2" d="M255.5,18.9c-.6-.6-1.1-.6-1.4-.6s-.6,0-.8.3c-.1.1-.2.3-.2.5s0,.3.2.5.5.3,1,.5l.6.2c.4.1.8.3,1.1.6.5.5.6,1,.6,1.5,0,.9-.3,1.6-.7,2-.7.8-1.8.8-2.3.8s-1.1,0-1.6-.3c-.4-.2-.9-.6-1.2-.9l1-1.4c.2.2.5.5.8.6.3.2.7.3,1,.3s.6,0,.9-.3c.2-.1.3-.4.3-.7s-.1-.4-.3-.6-.7-.4-1-.5l-.7-.2c-.4-.1-.8-.3-1.1-.7-.4-.5-.5-1-.5-1.4,0-.7.2-1.3.7-1.8.6-.6,1.3-.8,2-.8s1.5,0,2.4.8l-.8,1.4v.2Z"/>
    <path class="st2" d="M260.3,18.5v6.6h-1.9v-6.6h-1.8v-1.6h5.5v1.6h-1.8Z"/>
    <path class="st2" d="M269.5,17.9c.8.8,1.3,1.8,1.3,3.1s-.4,2.2-1.3,3.1c-.8.7-1.8,1.2-3.2,1.2s-2.6-.6-3.2-1.2c-.8-.7-1.3-1.8-1.3-3.1s.5-2.4,1.3-3.1,1.6-1.2,3.2-1.2,2.4.4,3.2,1.2ZM264.5,19.2c-.4.3-.7.9-.7,1.9s.2,1.4.8,1.8c.5.5,1.1.7,1.8.7s1.4-.3,1.8-.7c.3-.3.7-.9.7-1.8s-.3-1.5-.7-1.8c-.4-.4-1.1-.7-1.8-.7s-1.4.3-1.8.7h0Z"/>
    <path class="st2" d="M274.5,16.9c.7,0,1.5,0,2.2.7.7.6.8,1.4.8,2,0,1-.4,1.6-.7,1.9-.7.7-1.5.7-2.1.7h-1.2v2.9h-1.9v-8.2h2.9ZM273.5,20.7h.7c.3,0,.7,0,1-.3.2-.2.3-.5.3-.8s-.1-.6-.3-.8c-.3-.3-.7-.3-1.1-.3h-.6s0,2.2,0,2.2Z"/>
  </g>
</svg>